<svg width="16" height="16" viewBox="0 0 16 16" fill="none" xmlns="http://www.w3.org/2000/svg">
<g clip-path="url(#clip0_475_492)">
<path d="M3.64737 1.05625C3.788 0.865625 4.013 0.75 4.2505 0.75H11.7505C11.988 0.75 12.213 0.8625 12.3536 1.05625L15.8536 5.80625C16.0661 6.09375 16.0442 6.49062 15.8067 6.75625L8.55675 14.7563C8.41612 14.9125 8.213 15.0031 8.0005 15.0031C7.788 15.0031 7.588 14.9125 7.44425 14.7563L0.19425 6.75625C-0.046375 6.49062 -0.065125 6.09375 0.147375 5.80625L3.64737 1.05625ZM4.8505 2.3C4.74738 2.37812 4.71925 2.51875 4.78488 2.62812L6.57863 5.61562L1.97862 6C1.8505 6.00938 1.7505 6.11875 1.7505 6.25C1.7505 6.38125 1.8505 6.4875 1.97862 6.5L7.97863 7C7.99113 7 8.00675 7 8.01925 7L14.0192 6.5C14.1474 6.49062 14.2474 6.38125 14.2474 6.25C14.2474 6.11875 14.1474 6.0125 14.0192 6L9.42237 5.61875L11.2161 2.63125C11.2817 2.52187 11.2536 2.37812 11.1505 2.30312C11.0474 2.22812 10.9036 2.24062 10.8161 2.33437L8.0005 5.38125L5.18488 2.33125C5.09738 2.2375 4.95363 2.225 4.8505 2.3Z" fill="#FF0000"/>
</g>
<defs>
<clipPath id="clip0_475_492">
<path d="M0 0H16V16H0V0Z" fill="white"/>
</clipPath>
</defs>
</svg>
