<svg width="64" height="64" viewBox="0 0 64 64" fill="none" xmlns="http://www.w3.org/2000/svg">
<g clip-path="url(#clip0_497_547)">
<path d="M52 0H12C5.37258 0 0 5.37258 0 12V52C0 58.6274 5.37258 64 12 64H52C58.6274 64 64 58.6274 64 52V12C64 5.37258 58.6274 0 52 0Z" fill="#0B0F14"/>
<path d="M32.5455 13.0001C32.4437 13.0006 32.3049 13.0087 32.2371 13.0178C32.1692 13.0269 32.061 13.0466 31.9965 13.0614C31.9321 13.076 31.8155 13.11 31.7374 13.1367C31.6594 13.1634 31.5289 13.2179 31.4475 13.2579C31.3661 13.2979 31.2452 13.3667 31.1787 13.411C31.1123 13.4552 31.0165 13.5252 30.9656 13.5668C30.9149 13.6083 30.8296 13.6861 30.7759 13.7397C30.7224 13.7933 30.6445 13.8787 30.603 13.9294C30.5615 13.9802 30.4914 14.0761 30.4472 14.1425C30.4029 14.209 30.334 14.3299 30.2939 14.4113C30.2537 14.4927 30.1959 14.6342 30.1656 14.7259C30.1351 14.8174 30.0991 14.9479 30.0854 15.0158C30.0717 15.0836 30.0548 15.1891 30.0478 15.2502C30.0409 15.3113 30.0351 15.4984 30.0351 15.6661L30.0349 15.9709L28.7179 15.9746L27.4009 15.9785L27.3189 16.0061C27.2738 16.0214 27.2044 16.0557 27.1647 16.0823C27.1224 16.1108 27.0749 16.1571 27.0498 16.1942C27.0147 16.2464 27.0063 16.2716 27.0021 16.3373C26.9985 16.3935 27.0034 16.4337 27.0184 16.4728C27.03 16.5034 27.0665 16.5553 27.0993 16.5883C27.1323 16.6211 27.1886 16.6624 27.2248 16.6802C27.2608 16.6978 27.3292 16.7204 27.3765 16.7305C27.4493 16.7459 27.6612 16.7488 28.7488 16.7489L30.0349 16.7492V19.1919H28.7479C27.8702 19.1919 27.4379 19.1962 27.3882 19.2054C27.3481 19.2128 27.2818 19.2344 27.2409 19.2531C27.2 19.272 27.1435 19.3076 27.1153 19.3322C27.087 19.3569 27.0495 19.4058 27.032 19.4411C27.0089 19.4874 27 19.5246 27 19.5752C27 19.6138 27.0085 19.6659 27.019 19.6909C27.0295 19.7159 27.0611 19.7614 27.0892 19.792C27.1175 19.8225 27.1632 19.8608 27.191 19.8771C27.2186 19.8934 27.2662 19.9166 27.2965 19.9287L27.3516 19.9506L28.6902 19.9568L30.0288 19.963V22.4057L28.6964 22.4122C27.6262 22.4172 27.3542 22.4218 27.3146 22.4351C27.2875 22.4442 27.2439 22.4626 27.2178 22.4758C27.1916 22.4891 27.1453 22.523 27.1149 22.5511C27.0844 22.5792 27.0462 22.6286 27.0297 22.6609C27.0084 22.703 27 22.7398 27 22.7915C27 22.8441 27.0085 22.8807 27.0316 22.9269C27.0489 22.9617 27.0848 23.0098 27.1113 23.0337C27.1378 23.0576 27.1882 23.0918 27.2231 23.1095C27.2581 23.1272 27.3235 23.1495 27.3685 23.1591C27.4358 23.1734 27.6802 23.1765 28.7426 23.1766L30.0349 23.1768V25.6187L28.7118 25.6222L27.3886 25.6256L27.309 25.6544C27.2654 25.6701 27.2006 25.7022 27.1652 25.7257C27.1299 25.7492 27.0862 25.7876 27.0683 25.8112C27.0505 25.8346 27.0271 25.8744 27.0167 25.8996C27.0037 25.9305 26.999 25.9719 27.0021 26.0268C27.0059 26.0933 27.0142 26.1198 27.0476 26.1719C27.0738 26.2126 27.1154 26.2537 27.1628 26.2853C27.2036 26.3125 27.2738 26.3472 27.3189 26.3625L27.401 26.3903L28.718 26.394L30.035 26.3977V28.8393H28.7298C27.6127 28.8393 27.4146 28.8419 27.354 28.8577C27.3152 28.8678 27.2556 28.8903 27.2215 28.9075C27.1875 28.9248 27.1366 28.9595 27.1087 28.9848C27.0808 29.0099 27.045 29.0583 27.0291 29.0922C27.0099 29.1333 27.0003 29.1765 27.0003 29.2218C27.0003 29.2671 27.0099 29.3102 27.0293 29.3518C27.0453 29.3865 27.0837 29.4364 27.1159 29.4647C27.1476 29.4927 27.1986 29.5272 27.2292 29.5417C27.2598 29.556 27.3163 29.576 27.3548 29.586C27.4143 29.6015 27.6183 29.6042 28.7299 29.6042H30.0351L30.0319 30.8287L30.0288 32.0531L28.6903 32.0593L27.3517 32.0655L27.2965 32.0874C27.2663 32.0995 27.2187 32.1227 27.1911 32.139C27.1633 32.1553 27.1168 32.1943 27.0879 32.2257C27.0589 32.2572 27.0273 32.3017 27.0176 32.3249C27.0079 32.348 27.0002 32.3991 27.0003 32.4383C27.0005 32.4817 27.0098 32.53 27.0242 32.5618C27.0373 32.5905 27.0735 32.6388 27.1047 32.669C27.1358 32.6994 27.1903 32.7384 27.2258 32.7557C27.2614 32.773 27.3292 32.7955 27.3766 32.8056C27.4494 32.821 27.6613 32.8239 28.7488 32.824L30.035 32.8242V35.267H28.748C27.8702 35.267 27.4379 35.2713 27.3882 35.2804C27.3481 35.2878 27.2818 35.3094 27.2409 35.3282C27.2001 35.3471 27.1435 35.3827 27.1153 35.4072C27.0871 35.4319 27.0496 35.4809 27.032 35.5162C27.009 35.5624 27.0001 35.5997 27.0001 35.6503C27.0001 35.6889 27.0086 35.741 27.0191 35.766C27.0296 35.7909 27.0612 35.8365 27.0893 35.867C27.1175 35.8975 27.1633 35.9359 27.1911 35.9522C27.2187 35.9685 27.2663 35.9916 27.2965 36.0037L27.3517 36.0257L28.6903 36.0319L30.0288 36.038L30.0319 37.2625L30.0351 38.4869H28.7264C27.5745 38.4869 27.4083 38.4892 27.3422 38.5064C27.301 38.517 27.2455 38.5369 27.219 38.5505C27.1925 38.5639 27.1458 38.598 27.1154 38.6261C27.0849 38.6542 27.0466 38.7036 27.0302 38.7359C27.0089 38.778 27.0005 38.8149 27.0005 38.8665C27.0005 38.9191 27.009 38.9557 27.032 39.0019C27.0493 39.0367 27.0852 39.0848 27.1118 39.1087C27.1383 39.1326 27.1879 39.1663 27.2218 39.1836C27.2559 39.2009 27.3185 39.2232 27.3611 39.2332C27.4267 39.2487 27.6349 39.2515 28.737 39.2517L30.0355 39.2518L30.0324 40.3952L30.0292 41.5385L29.8907 41.6258C29.8145 41.6738 29.7008 41.7491 29.6383 41.7932C29.5757 41.8373 29.454 41.9304 29.3677 42.0001C29.2814 42.0697 29.1401 42.1947 29.0538 42.2777C28.9673 42.3606 28.8376 42.4958 28.7654 42.578C28.6933 42.6602 28.5922 42.7823 28.5408 42.8494C28.4893 42.9165 28.403 43.038 28.3488 43.1195C28.2946 43.2009 28.2214 43.3167 28.1861 43.3771C28.1507 43.4373 28.0839 43.5622 28.0378 43.6546C27.9915 43.747 27.9355 43.8642 27.9132 43.9152C27.891 43.966 27.8484 44.0715 27.8187 44.1496C27.7891 44.2276 27.7402 44.3729 27.7101 44.4725C27.6801 44.572 27.6361 44.7441 27.6124 44.8549C27.5887 44.9657 27.5578 45.1394 27.5436 45.2409C27.5295 45.3426 27.5115 45.5405 27.5036 45.681C27.4928 45.8764 27.4929 45.9951 27.5041 46.1872C27.5123 46.3252 27.5272 46.5019 27.5373 46.58C27.5475 46.6581 27.5701 46.7966 27.5875 46.8879C27.6049 46.9792 27.6355 47.118 27.6556 47.1963C27.6756 47.2747 27.7146 47.408 27.7422 47.4929C27.7697 47.5777 27.8206 47.7193 27.855 47.8075C27.8894 47.8957 27.9722 48.0761 28.0388 48.2084C28.1054 48.3407 28.1974 48.5086 28.2433 48.5815C28.2892 48.6544 28.3724 48.7796 28.4283 48.8599C28.484 48.9401 28.5885 49.0767 28.6604 49.1633C28.7324 49.2499 28.8522 49.3837 28.9266 49.4605C29.001 49.5374 29.1191 49.651 29.189 49.713C29.2589 49.7749 29.3766 49.873 29.4506 49.9308C29.5245 49.9888 29.6628 50.0879 29.7578 50.1512C29.8528 50.2145 29.9854 50.2977 30.0527 50.3362C30.1198 50.3746 30.2292 50.4334 30.2958 50.4668C30.3624 50.5002 30.4934 50.5601 30.587 50.6002C30.6805 50.6402 30.8404 50.701 30.9422 50.7356C31.044 50.77 31.2042 50.818 31.2982 50.8422C31.3924 50.8662 31.5423 50.8993 31.6313 50.9157C31.7205 50.932 31.8646 50.9544 31.9517 50.9655C32.0387 50.9766 32.2136 50.99 32.3403 50.9953C32.467 51.0005 32.6706 51.0005 32.7927 50.9953C32.9149 50.9901 33.087 50.977 33.1751 50.9663C33.2634 50.9555 33.3995 50.9356 33.4774 50.9219C33.5555 50.9082 33.7076 50.8744 33.8156 50.8467C33.9235 50.8192 34.09 50.7704 34.1857 50.7382C34.2813 50.706 34.4311 50.65 34.5189 50.6138C34.6065 50.5777 34.7536 50.5099 34.8458 50.4632C34.938 50.4164 35.0828 50.3367 35.1675 50.286C35.2524 50.2352 35.3868 50.1482 35.4661 50.0925C35.5456 50.0367 35.6677 49.9456 35.7375 49.8899C35.8075 49.8342 35.9301 49.7281 36.0102 49.6541C36.0903 49.5802 36.2116 49.4592 36.28 49.3853C36.3485 49.3114 36.4625 49.1788 36.5334 49.0906C36.6043 49.0024 36.7194 48.8441 36.789 48.739C36.8586 48.6337 36.9407 48.5033 36.9715 48.4491C37.0022 48.3948 37.0661 48.2726 37.1136 48.1776C37.161 48.0827 37.2333 47.9217 37.2742 47.8199C37.3151 47.7181 37.3682 47.5738 37.3922 47.4991C37.4161 47.4245 37.4525 47.2996 37.4732 47.2215C37.4938 47.1435 37.5247 47.0102 37.5417 46.9255C37.5587 46.8406 37.5843 46.6851 37.5984 46.58C37.6167 46.4443 37.6262 46.2904 37.6311 46.0495C37.6355 45.8373 37.6327 45.6456 37.6239 45.5376C37.616 45.4426 37.5983 45.2871 37.5847 45.1921C37.5712 45.0971 37.5402 44.9306 37.5161 44.822C37.4921 44.7135 37.4475 44.5441 37.417 44.4458C37.3864 44.3473 37.3362 44.2003 37.3052 44.1188C37.2743 44.0374 37.2161 43.899 37.176 43.8114C37.1359 43.7237 37.0692 43.5904 37.0278 43.5153C36.9865 43.4401 36.9166 43.3203 36.8723 43.2491C36.8281 43.1778 36.7485 43.0584 36.6955 42.9836C36.6425 42.9088 36.5487 42.7867 36.487 42.7122C36.4253 42.6377 36.317 42.5147 36.2462 42.4389C36.1755 42.3632 36.051 42.2415 35.9696 42.1688C35.8883 42.096 35.7619 41.9896 35.6889 41.9325C35.6159 41.8754 35.484 41.7802 35.3958 41.7209C35.3076 41.6616 35.2063 41.5968 35.1706 41.5768L35.1058 41.5404V28.4933C35.1058 19.7821 35.1017 15.4018 35.0934 15.3111C35.0865 15.2364 35.0698 15.1191 35.0564 15.0505C35.0429 14.9818 35.0178 14.8763 35.0004 14.8161C34.983 14.7558 34.949 14.6566 34.925 14.5955C34.9009 14.5344 34.8516 14.4277 34.8152 14.3583C34.7788 14.2889 34.7155 14.1822 34.6746 14.1213C34.6336 14.0603 34.5592 13.9616 34.5094 13.9021C34.4595 13.8423 34.3722 13.7491 34.315 13.6947C34.2581 13.6401 34.1654 13.5607 34.1093 13.518C34.0531 13.4753 33.9614 13.412 33.9057 13.3774C33.8499 13.3427 33.7377 13.2822 33.6562 13.2429C33.5748 13.2034 33.4416 13.1495 33.3602 13.1228C33.2788 13.0962 33.1539 13.0629 33.0826 13.0487C33.0114 13.0345 32.9031 13.0174 32.842 13.0104C32.781 13.0037 32.6472 12.9994 32.5455 13.0001ZM32.638 13.4265C32.6958 13.4294 32.7901 13.4373 32.8477 13.4441C32.9055 13.4509 33.0054 13.4696 33.0698 13.4858C33.1343 13.5018 33.2361 13.5328 33.2961 13.5545C33.356 13.5762 33.4563 13.6201 33.5189 13.652C33.5815 13.6838 33.6768 13.7394 33.7306 13.7753C33.7845 13.8113 33.8739 13.879 33.9293 13.9253C33.9847 13.9719 34.0667 14.0503 34.1115 14.0998C34.1562 14.1491 34.2258 14.2335 34.266 14.2872C34.3062 14.3409 34.368 14.4371 34.4034 14.5011C34.4388 14.565 34.4888 14.6683 34.5145 14.7306C34.5402 14.7929 34.5752 14.8922 34.5922 14.9513C34.6093 15.0104 34.6332 15.1074 34.6451 15.1668L34.667 15.2749L34.6705 17.906L34.6741 20.537L32.5673 20.5338L30.4605 20.5307V19.9631L31.5832 19.957L32.7058 19.9508L32.7751 19.9228C32.8131 19.9075 32.8694 19.8781 32.9003 19.8577C32.9311 19.8372 32.97 19.8026 32.9866 19.7808C33.0031 19.759 33.0257 19.7236 33.0367 19.7022C33.0477 19.681 33.0603 19.6414 33.0646 19.6144C33.0695 19.5832 33.0651 19.5396 33.052 19.495C33.0381 19.4473 33.0148 19.4064 32.9797 19.3682C32.9512 19.3373 32.9063 19.2983 32.8799 19.2816C32.8534 19.2649 32.8007 19.2393 32.7627 19.2248L32.6935 19.1984L31.5739 19.1948L30.4544 19.1913V16.7494L31.5123 16.7493C32.172 16.7493 32.5994 16.7445 32.6478 16.7366C32.6903 16.7297 32.7558 16.7127 32.7931 16.6988C32.8303 16.6848 32.8841 16.6556 32.9125 16.634C32.941 16.6123 32.9817 16.5716 33.0032 16.5434C33.0246 16.5153 33.0492 16.4634 33.0576 16.4281C33.0698 16.3774 33.0699 16.3497 33.0581 16.2973C33.0496 16.2593 33.0261 16.2083 33.0035 16.1786C32.9816 16.15 32.9338 16.1056 32.8971 16.0799C32.8605 16.0543 32.7941 16.0211 32.7497 16.006L32.6689 15.9788L31.5616 15.9749L30.4544 15.9711L30.4549 15.7651C30.455 15.6517 30.4603 15.4866 30.4664 15.3983C30.4724 15.31 30.4891 15.1809 30.5031 15.1115C30.5173 15.042 30.5459 14.9339 30.5666 14.8711C30.5875 14.8083 30.632 14.6987 30.6658 14.6275C30.6995 14.5562 30.7695 14.434 30.8212 14.3561C30.8915 14.2498 30.9571 14.1721 31.0826 14.0467C31.2082 13.9211 31.2858 13.8556 31.3925 13.7849C31.4707 13.7331 31.593 13.6632 31.6642 13.6297C31.7353 13.596 31.8459 13.5514 31.9098 13.5303C31.9737 13.5092 32.0819 13.4805 32.1501 13.4665C32.2184 13.4525 32.3325 13.4367 32.4037 13.4313C32.475 13.426 32.5804 13.4237 32.638 13.4265ZM31.555 22.412C32.5323 22.412 32.6647 22.4144 32.7242 22.4319C32.761 22.4429 32.8134 22.463 32.8405 22.4767C32.8677 22.4905 32.911 22.5183 32.9367 22.5386C32.9625 22.5588 32.9999 22.6039 33.0198 22.6387C33.0395 22.6735 33.0592 22.7249 33.0634 22.7532C33.0684 22.7854 33.0639 22.8295 33.0515 22.8721C33.0383 22.9177 33.0136 22.9601 32.9756 23.0023C32.9396 23.0423 32.8889 23.0801 32.8345 23.1074C32.7872 23.1309 32.7125 23.156 32.6656 23.1636C32.6065 23.1735 32.2656 23.1766 31.5205 23.1742L30.4595 23.1708L30.4563 22.7914L30.4529 22.4121L31.555 22.412ZM31.538 25.6198C32.4181 25.62 32.6208 25.6232 32.6897 25.6377C32.7356 25.6475 32.8067 25.6733 32.8477 25.6951C32.8888 25.717 32.9469 25.7623 32.9771 25.7959C33.0137 25.8367 33.0384 25.8793 33.0516 25.9248C33.0643 25.9683 33.0685 26.0109 33.0633 26.043C33.059 26.0706 33.0407 26.1202 33.0226 26.1533C33.0046 26.1864 32.9713 26.2298 32.9487 26.2497C32.926 26.2695 32.8785 26.3006 32.8431 26.3185C32.8078 26.3365 32.7511 26.3586 32.7172 26.3677C32.6678 26.3809 32.4344 26.3842 31.5544 26.3844H30.4534V26.0102C30.4534 25.8043 30.4571 25.6322 30.4617 25.6278C30.4661 25.6232 30.9505 25.6197 31.538 25.6198ZM31.5488 28.8395C32.4801 28.8395 32.6548 28.8422 32.7149 28.8578C32.7538 28.868 32.8134 28.8904 32.8474 28.9077C32.8815 28.9248 32.9311 28.9607 32.9577 28.9874C32.9844 29.014 33.0173 29.0577 33.031 29.0846C33.0447 29.1114 33.0594 29.1553 33.0637 29.1822C33.0686 29.2133 33.0642 29.257 33.0511 29.3015C33.0372 29.3491 33.0139 29.3901 32.9788 29.4282C32.9503 29.4592 32.9054 29.4981 32.879 29.5148C32.8525 29.5316 32.7998 29.5571 32.7618 29.5717L32.6926 29.5981L31.573 29.6016L30.4535 29.6051V28.8393L31.5488 28.8395ZM31.5666 32.0498L32.6679 32.0534L32.7445 32.0797C32.7867 32.0941 32.846 32.1204 32.8761 32.138C32.9062 32.1557 32.9535 32.196 32.9814 32.2276C33.0111 32.2614 33.0395 32.3106 33.0504 32.3473C33.0606 32.3815 33.0689 32.4212 33.0689 32.4357C33.0689 32.4503 33.0605 32.4903 33.0503 32.5248C33.0386 32.564 33.0114 32.61 32.9774 32.6478C32.9476 32.681 32.8963 32.7227 32.8635 32.7405C32.8305 32.7582 32.7703 32.783 32.7296 32.7955L32.6556 32.8182H30.4596L30.4563 32.4482C30.4545 32.2448 30.4558 32.0711 30.4592 32.0623C30.4642 32.0492 30.6733 32.0469 31.5666 32.0498ZM31.5384 35.2671C32.2984 35.2671 32.6431 35.2713 32.6889 35.2811C32.7249 35.2887 32.7832 35.3079 32.8186 35.3234C32.854 35.3391 32.9115 35.3784 32.9462 35.411C32.981 35.4434 33.0212 35.4924 33.0356 35.5198C33.0545 35.5556 33.0618 35.5917 33.0618 35.6496C33.0618 35.7085 33.0545 35.7436 33.0344 35.7818C33.0194 35.8106 32.9876 35.8533 32.9641 35.8768C32.9405 35.9004 32.8955 35.9348 32.8639 35.9532C32.8324 35.9717 32.77 35.997 32.7251 36.0095L32.6437 36.032H30.4545V35.2671L31.5384 35.2671ZM31.4862 38.475C32.0658 38.475 32.5529 38.4802 32.6124 38.4871C32.6701 38.4936 32.748 38.5105 32.7856 38.5244C32.8232 38.5385 32.8814 38.5707 32.9151 38.5961C32.9488 38.6215 32.9941 38.672 33.0159 38.7083C33.0376 38.7447 33.0591 38.7981 33.0634 38.8269C33.0685 38.8608 33.0642 38.9038 33.0516 38.9472C33.0382 38.9931 33.0137 39.0352 32.9751 39.0781C32.9363 39.1213 32.8902 39.1549 32.83 39.1838C32.7792 39.2083 32.7051 39.2318 32.6554 39.2395C32.5979 39.2483 32.2172 39.2514 31.5144 39.2492L30.4595 39.2459L30.4562 38.8759C30.4544 38.6725 30.4557 38.4989 30.4589 38.4904C30.4637 38.4781 30.6758 38.4748 31.4862 38.475Z" fill="#FF0000"/>
</g>
<defs>
<clipPath id="clip0_497_547">
<rect width="64" height="64" fill="white"/>
</clipPath>
</defs>
</svg>
