<svg width="20" height="16" viewBox="0 0 20 16" fill="none" xmlns="http://www.w3.org/2000/svg">
<path d="M20 16H0V0H20V16Z" stroke="#FF0000"/>
<path d="M0 7.53438C0 5.03125 2.03125 3 4.53438 3C5.7375 3 6.89062 3.47812 7.74062 4.32812L10 6.58437L12.2563 4.32812C13.1094 3.47812 14.2625 3 15.4656 3C17.9687 3 20 5.03125 20 7.53438V8.4625C20 10.9687 17.9687 13 15.4656 13C14.2625 13 13.1094 12.5219 12.2594 11.6719L10 9.41562L7.74375 11.6719C6.89063 12.5219 5.7375 13 4.53438 13C2.03125 13 0 10.9687 0 8.46562V7.53438ZM8.58438 8L6.32812 5.74375C5.85313 5.26875 5.20625 5 4.53438 5C3.13438 5 2 6.13438 2 7.53438V8.4625C2 9.8625 3.13438 10.9969 4.53438 10.9969C5.20625 10.9969 5.85313 10.7313 6.32812 10.2531L8.58438 8ZM11.4125 8L13.6687 10.2563C14.1437 10.7313 14.7906 11 15.4625 11C16.8625 11 17.9969 9.86562 17.9969 8.46562V7.53438C17.9969 6.13438 16.8625 5 15.4625 5C14.7906 5 14.1437 5.26563 13.6687 5.74375L11.4156 8H11.4125Z" fill="#FF0000"/>
</svg>
