<svg width="18" height="16" viewBox="0 0 18 16" fill="none" xmlns="http://www.w3.org/2000/svg">
<g clip-path="url(#clip0_475_488)">
<path d="M9.90254 0.5625C9.73692 0.21875 9.38692 0 9.00255 0C8.61817 0 8.27129 0.21875 8.10254 0.5625L6.09317 4.69688L1.60567 5.35938C1.23067 5.41562 0.91817 5.67812 0.802545 6.0375C0.68692 6.39687 0.78067 6.79375 1.04942 7.05937L4.30567 10.2812L3.53692 14.8344C3.47442 15.2094 3.63067 15.5906 3.94005 15.8125C4.24942 16.0344 4.65879 16.0625 4.99629 15.8844L9.00567 13.7437L13.015 15.8844C13.3525 16.0625 13.7619 16.0375 14.0713 15.8125C14.3807 15.5875 14.5369 15.2094 14.4744 14.8344L13.7025 10.2812L16.9588 7.05937C17.2275 6.79375 17.3244 6.39687 17.2057 6.0375C17.0869 5.67812 16.7775 5.41562 16.4025 5.35938L11.9119 4.69688L9.90254 0.5625Z" fill="#FF0000"/>
</g>
<defs>
<clipPath id="clip0_475_488">
<path d="M0 0H18V16H0V0Z" fill="white"/>
</clipPath>
</defs>
</svg>
